<svg xmlns="http://www.w3.org/2000/svg" width="805" height="600"><rect width="805" height="600" x="0" y="0" fill="#FFFFFF" id="background"/><g transform="translate(79,100)" id="viz"><g fill="none" font-size="10" font-family="sans-serif" text-anchor="middle"><path class="domain" stroke="currentColor" d="M0,0H676"/><g class="tick" opacity="1" transform="translate(49.15834767641998,0)"><line stroke="currentColor" y2="-6"/><text fill="currentColor" y="-9" dy="3.4641016151377544" dx="3.4641016151377544" text-anchor="start" transform="rotate(-45)">lunes</text></g><g class="tick" opacity="1" transform="translate(145.43889845094665,0)"><line stroke="currentColor" y2="-6"/><text fill="currentColor" y="-9" dy="3.4641016151377544" dx="3.4641016151377544" text-anchor="start" transform="rotate(-45)">martes</text></g><g class="tick" opacity="1" transform="translate(241.71944922547334,0)"><line stroke="currentColor" y2="-6"/><text fill="currentColor" y="-9" dy="3.4641016151377544" dx="3.4641016151377544" text-anchor="start" transform="rotate(-45)">miércoles</text></g><g class="tick" opacity="1" transform="translate(338,0)"><line stroke="currentColor" y2="-6"/><text fill="currentColor" y="-9" dy="3.4641016151377544" dx="3.4641016151377544" text-anchor="start" transform="rotate(-45)">jueves</text></g><g class="tick" opacity="1" transform="translate(434.28055077452666,0)"><line stroke="currentColor" y2="-6"/><text fill="currentColor" y="-9" dy="3.4641016151377544" dx="3.4641016151377544" text-anchor="start" transform="rotate(-45)">viernes</text></g><g class="tick" opacity="1" transform="translate(530.5611015490533,0)"><line stroke="currentColor" y2="-6"/><text fill="currentColor" y="-9" dy="3.4641016151377544" dx="3.4641016151377544" text-anchor="start" transform="rotate(-45)">sábado</text></g><g class="tick" opacity="1" transform="translate(626.8416523235801,0)"><line stroke="currentColor" y2="-6"/><text fill="currentColor" y="-9" dy="3.4641016151377544" dx="3.4641016151377544" text-anchor="start" transform="rotate(-45)">domingo</text></g></g><g fill="none" font-size="10" font-family="sans-serif" text-anchor="end"><path class="domain" stroke="currentColor" d="M0,0V579.4285714285714"/><g class="tick" opacity="1" transform="translate(0,49.13368217332092)"><line stroke="currentColor" x2="-6"/><text fill="currentColor" x="-9" dy="0.32em">casa</text></g><g class="tick" opacity="1" transform="translate(0,145.36592358970682)"><line stroke="currentColor" x2="-6"/><text fill="currentColor" x="-9" dy="0.32em">sdf</text></g><g class="tick" opacity="1" transform="translate(0,241.59816500609276)"><line stroke="currentColor" x2="-6"/><text fill="currentColor" x="-9" dy="0.32em">sr</text></g><g class="tick" opacity="1" transform="translate(0,337.83040642247863)"><line stroke="currentColor" x2="-6"/><text fill="currentColor" x="-9" dy="0.32em">comida</text></g><g class="tick" opacity="1" transform="translate(0,434.06264783886456)"><line stroke="currentColor" x2="-6"/><text fill="currentColor" x="-9" dy="0.32em">clase timonel</text></g><g class="tick" opacity="1" transform="translate(0,530.2948892552505)"><line stroke="currentColor" x2="-6"/><text fill="currentColor" x="-9" dy="0.32em">sdt</text></g></g><text dx="-9" dy="-9" style="text-anchor: end; font-family: Arial, sans-serif; font-size: 12px; fill: rgb(123, 123, 123); font-weight: bold;">ubicacion</text><text x="484.36814511278504" y="484.36814511278504" dx="3.4641016151377544" dy="-3.4641016151377544" transform="rotate(-45)" style="text-anchor: start; font-family: Arial, sans-serif; font-size: 12px; fill: rgb(123, 123, 123); font-weight: bold;">dia</text><rect x="8.591988776903257" y="8.590967128845897" rx="0" ry="0" width="81.4597401742486" height="81.4597401742486" style="fill: rgb(31, 119, 180);"/><rect x="34.61195839449452" y="130.84317816282308" rx="0" ry="0" width="29.419800939066064" height="29.419800939066064" style="fill: rgb(214, 39, 40);"/><rect x="98.31669535283994" y="2.035122930255909" rx="0" ry="0" width="94.57142857142857" height="94.57142857142857" style="fill: rgb(31, 119, 180);"/><rect x="133.59182619939335" y="133.54249519319524" rx="0" ry="0" width="24.021166878321747" height="24.021166878321747" style="fill: rgb(214, 39, 40);"/><rect x="197.7532590044818" y="5.191135807371097" rx="0" ry="0" width="88.2594028171982" height="88.2594028171982" style="fill: rgb(31, 119, 180);"/><rect x="229.87237697392004" y="229.77473660958117" rx="0" ry="0" width="24.021166878321747" height="24.021166878321747" style="fill: rgb(140, 86, 75);"/><rect x="302.131760870125" y="13.289086898487575" rx="0" ry="0" width="72.06350063496524" height="72.06350063496524" style="fill: rgb(31, 119, 180);"/><rect x="403.8229622991764" y="18.69973755301238" rx="0" ry="0" width="61.24219932591563" height="61.24219932591563" style="fill: rgb(31, 119, 180);"/><rect x="419.73416149260123" y="323.3076609955949" rx="0" ry="0" width="29.419800939066064" height="29.419800939066064" style="fill: rgb(44, 160, 44);"/><rect x="503.86813171726396" y="22.464356196573267" rx="0" ry="0" width="53.712962038793854" height="53.712962038793854" style="fill: rgb(31, 119, 180);"/><rect x="516.0147122671278" y="419.53990241198085" rx="0" ry="0" width="29.419800939066064" height="29.419800939066064" style="fill: rgb(255, 127, 14);"/><rect x="600.1486824917907" y="22.464356196573267" rx="0" ry="0" width="53.712962038793854" height="53.712962038793854" style="fill: rgb(31, 119, 180);"/><rect x="34.61195839449452" y="515.7721438283668" rx="0" ry="0" width="29.419800939066064" height="29.419800939066064" style="fill: rgb(148, 103, 189);"/><g id="labels"><g transform="translate(49.321858864027554,49.320837215970194)"><text x="0" y="0" text-anchor="middle" dominant-baseline="text-before-edge" transform="translate(0,0)"/></g><g transform="translate(49.321858864027554,145.55307863235612)"><text x="0" y="0" text-anchor="middle" dominant-baseline="text-before-edge" transform="translate(0,0)"/></g><g transform="translate(145.60240963855424,49.320837215970194)"><text x="0" y="0" text-anchor="middle" dominant-baseline="text-before-edge" transform="translate(0,0)"/></g><g transform="translate(145.60240963855424,145.55307863235612)"><text x="0" y="0" text-anchor="middle" dominant-baseline="text-before-edge" transform="translate(0,0)"/></g><g transform="translate(241.8829604130809,49.320837215970194)"><text x="0" y="0" text-anchor="middle" dominant-baseline="text-before-edge" transform="translate(0,0)"/></g><g transform="translate(241.8829604130809,241.78532004874202)"><text x="0" y="0" text-anchor="middle" dominant-baseline="text-before-edge" transform="translate(0,0)"/></g><g transform="translate(338.1635111876076,49.320837215970194)"><text x="0" y="0" text-anchor="middle" dominant-baseline="text-before-edge" transform="translate(0,0)"/></g><g transform="translate(434.44406196213424,49.320837215970194)"><text x="0" y="0" text-anchor="middle" dominant-baseline="text-before-edge" transform="translate(0,0)"/></g><g transform="translate(434.44406196213424,338.0175614651279)"><text x="0" y="0" text-anchor="middle" dominant-baseline="text-before-edge" transform="translate(0,0)"/></g><g transform="translate(530.7246127366609,49.320837215970194)"><text x="0" y="0" text-anchor="middle" dominant-baseline="text-before-edge" transform="translate(0,0)"/></g><g transform="translate(530.7246127366609,434.24980288151386)"><text x="0" y="0" text-anchor="middle" dominant-baseline="text-before-edge" transform="translate(0,0)"/></g><g transform="translate(627.0051635111877,49.320837215970194)"><text x="0" y="0" text-anchor="middle" dominant-baseline="text-before-edge" transform="translate(0,0)"/></g><g transform="translate(49.321858864027554,530.4820442978998)"><text x="0" y="0" text-anchor="middle" dominant-baseline="text-before-edge" transform="translate(0,0)"/></g></g></g></svg>